<svg xmlns="http://www.w3.org/2000/svg" width="79.155" height="81.231" viewBox="0 0 79.155 81.231">
  <g id="Componente_92_1" data-name="Componente 92 – 1" transform="translate(0.125 0.125)">
    <path id="Tracciato_65254" data-name="Tracciato 65254" d="M7941.608,3195.251v15.934s.594,7.143-5.53,9.029a9.82,9.82,0,0,1-2.756.344h.171" transform="translate(-7880.719 -3148.933)" fill="none" stroke="#1e3b6e" stroke-width="3"/>
    <g id="Livello_2" transform="translate(39.452)">
      <g id="Layer_1">
        <path id="Path" d="M4.682,76.838a5.65,5.65,0,0,1,3.99-4.853l9.013-3.033a2.576,2.576,0,0,0,1.625,1.668A7.714,7.714,0,0,0,23,71.378c2.216,0,4.728-.758,5.319-2.578l9.013,3.033a6.036,6.036,0,0,1,3.99,4.853C41.327,76.838,4.682,76.838,4.682,76.838Z" transform="translate(-3.205 -28.153)" fill="#73d7ff" stroke="#1e3b6e" stroke-width="0.25"/>
        <path id="Shape" d="M36.646,43.327l-.887-.3c1.034-.607,2.216-1.062,3.251-1.668a.812.812,0,0,0,.443-.607V16.633C39.306,8.14,32.509,1.012,24.087,1.012H19.8A15.5,15.5,0,0,0,4.582,16.633V40.748c0,.3.148.607.443.607a33,33,0,0,0,3.251,1.668l-1.034.3A7.453,7.453,0,0,0,2.218,50.3a.548.548,0,0,0,.591.607H40.931a.707.707,0,0,0,.739-.758h0A7.41,7.41,0,0,0,36.646,43.327ZM6.06,40.293V16.633A13.9,13.9,0,0,1,19.8,2.528h4.285a13.9,13.9,0,0,1,13.742,14.1v23.66a20.815,20.815,0,0,1-4.137,1.972l-6.354-2.123V35.288A12.7,12.7,0,0,0,34.43,23.762V18.908a15.321,15.321,0,0,0-.3-2.578v-.3l-.148-.152-.3-.152-.148-.152H31.179a4.026,4.026,0,0,1-3.99-4.095v-.152a5.626,5.626,0,0,0-5.467-5.612H19.654c-6.354,0-10.491,5-10.491,12.892v4.853a12.7,12.7,0,0,0,7.093,11.527v4.853L9.9,41.962A19.445,19.445,0,0,1,6.06,40.293ZM19.8,7.382H21.87a4.026,4.026,0,0,1,3.99,4.095,5.626,5.626,0,0,0,5.467,5.612h1.625a6.976,6.976,0,0,1,.148,1.668V23.61c-.3,6.37-5.319,11.375-11.525,11.072A11.3,11.3,0,0,1,10.788,23.61V18.757C10.788,13.3,13.152,7.382,19.8,7.382ZM18.028,40.6V35.743a12,12,0,0,0,7.979,0V40.6h0c0,1.365-2.069,1.972-3.99,1.972-1.921.3-3.99-.607-3.99-1.972ZM3.7,49.7a5.65,5.65,0,0,1,3.99-4.853L16.7,41.81a2.576,2.576,0,0,0,1.625,1.668,7.714,7.714,0,0,0,3.694.758c2.216,0,4.728-.758,5.319-2.578l9.013,3.033a6.036,6.036,0,0,1,3.99,4.853C40.34,49.7,3.7,49.7,3.7,49.7Z" transform="translate(-2.218 -1.012)" fill="#1e3a6d" stroke="#1e3b6e" stroke-width="0.25"/>
      </g>
    </g>
    <g id="Livello_2-2" data-name="Livello_2" transform="translate(0 24.949)">
      <g id="Layer_1-2" data-name="Layer_1">
        <path id="Path-2" data-name="Path" d="M4.682,76.838a5.65,5.65,0,0,1,3.99-4.853l9.013-3.033a2.576,2.576,0,0,0,1.625,1.668A7.714,7.714,0,0,0,23,71.378c2.216,0,4.728-.758,5.319-2.578l9.013,3.033a6.036,6.036,0,0,1,3.99,4.853C41.327,76.838,4.682,76.838,4.682,76.838Z" transform="translate(-3.205 -28.153)" fill="#73d7ff" stroke="#1e3b6e" stroke-width="0.25"/>
        <path id="Shape-2" data-name="Shape" d="M36.646,43.327l-.887-.3c1.034-.607,2.216-1.062,3.251-1.668a.812.812,0,0,0,.443-.607V16.633C39.306,8.14,32.509,1.012,24.087,1.012H19.8A15.5,15.5,0,0,0,4.582,16.633V40.748c0,.3.148.607.443.607a33,33,0,0,0,3.251,1.668l-1.034.3A7.453,7.453,0,0,0,2.218,50.3a.548.548,0,0,0,.591.607H40.931a.707.707,0,0,0,.739-.758h0A7.41,7.41,0,0,0,36.646,43.327ZM6.06,40.293V16.633A13.9,13.9,0,0,1,19.8,2.528h4.285a13.9,13.9,0,0,1,13.742,14.1v23.66a20.815,20.815,0,0,1-4.137,1.972l-6.354-2.123V35.288A12.7,12.7,0,0,0,34.43,23.762V18.908a15.321,15.321,0,0,0-.3-2.578v-.3l-.148-.152-.3-.152-.148-.152H31.179a4.026,4.026,0,0,1-3.99-4.095v-.152a5.626,5.626,0,0,0-5.467-5.612H19.654c-6.354,0-10.491,5-10.491,12.892v4.853a12.7,12.7,0,0,0,7.093,11.527v4.853L9.9,41.962A19.445,19.445,0,0,1,6.06,40.293ZM19.8,7.382H21.87a4.026,4.026,0,0,1,3.99,4.095,5.626,5.626,0,0,0,5.467,5.612h1.625a6.976,6.976,0,0,1,.148,1.668V23.61c-.3,6.37-5.319,11.375-11.525,11.072A11.3,11.3,0,0,1,10.788,23.61V18.757C10.788,13.3,13.152,7.382,19.8,7.382ZM18.028,40.6V35.743a12,12,0,0,0,7.979,0V40.6h0c0,1.365-2.069,1.972-3.99,1.972-1.921.3-3.99-.607-3.99-1.972ZM3.7,49.7a5.65,5.65,0,0,1,3.99-4.853L16.7,41.81a2.576,2.576,0,0,0,1.625,1.668,7.714,7.714,0,0,0,3.694.758c2.216,0,4.728-.758,5.319-2.578l9.013,3.033a6.036,6.036,0,0,1,3.99,4.853C40.34,49.7,3.7,49.7,3.7,49.7Z" transform="translate(-2.218 -1.012)" fill="#1e3a6d" stroke="#1e3b6e" stroke-width="0.25"/>
      </g>
    </g>
    <ellipse id="Oval" cx="8.694" cy="8.694" rx="8.694" ry="8.694" transform="translate(28.651 62.718)" fill="#1e3b6e" stroke="#fff" stroke-width="2"/>
    <path id="Tracciato_65255" data-name="Tracciato 65255" d="M8046.686,3151.39,8041.5,3157l5.187,4.492" transform="translate(-7993.653 -3085.105)" fill="none" stroke="#1e3b6e" stroke-linecap="round" stroke-linejoin="round" stroke-width="3"/>
    <path id="Path-3" data-name="Path" d="M8.134,11.759a1.781,1.781,0,0,1-.7-.212A1.129,1.129,0,0,1,7.21,9.988l7.279-9A1.25,1.25,0,0,1,16.115.78a1.129,1.129,0,0,1,.222,1.558l-7.279,9A1.322,1.322,0,0,1,8.134,11.759Z" transform="translate(28.482 64.188)" fill="#fff"/>
    <path id="Path-4" data-name="Path" d="M5.321,12.614a.87.87,0,0,1-.712-.293L.6,8.6A.818.818,0,0,1,.6,7.3a1.028,1.028,0,0,1,1.423,0L6.032,11.03a.818.818,0,0,1,0,1.291A1.013,1.013,0,0,1,5.321,12.614Z" transform="translate(31.441 63.333)" fill="#fff"/>
  </g>
</svg>
