<svg xmlns="http://www.w3.org/2000/svg" width="80.157" height="81.762" viewBox="0 0 80.157 81.762">
  <g id="Componente_93_1" data-name="Componente 93 – 1" transform="translate(0.129 0.125)">
    <g id="Livello_2" transform="translate(40.451)">
      <g id="Layer_1">
        <path id="Path" d="M4.682,76.838a5.65,5.65,0,0,1,3.99-4.853l9.013-3.033a2.576,2.576,0,0,0,1.625,1.668A7.714,7.714,0,0,0,23,71.378c2.216,0,4.728-.758,5.319-2.578l9.013,3.033a6.036,6.036,0,0,1,3.99,4.853C41.327,76.838,4.682,76.838,4.682,76.838Z" transform="translate(-3.205 -28.153)" fill="#73d7ff" stroke="#1e3b6e" stroke-width="0.25"/>
        <path id="Shape" d="M36.646,43.327l-.887-.3c1.034-.607,2.216-1.062,3.251-1.668a.812.812,0,0,0,.443-.607V16.633C39.306,8.14,32.509,1.012,24.087,1.012H19.8A15.5,15.5,0,0,0,4.582,16.633V40.748c0,.3.148.607.443.607a33,33,0,0,0,3.251,1.668l-1.034.3A7.453,7.453,0,0,0,2.218,50.3a.548.548,0,0,0,.591.607H40.931a.707.707,0,0,0,.739-.758h0A7.41,7.41,0,0,0,36.646,43.327ZM6.06,40.293V16.633A13.9,13.9,0,0,1,19.8,2.528h4.285a13.9,13.9,0,0,1,13.742,14.1v23.66a20.815,20.815,0,0,1-4.137,1.972l-6.354-2.123V35.288A12.7,12.7,0,0,0,34.43,23.762V18.908a15.321,15.321,0,0,0-.3-2.578v-.3l-.148-.152-.3-.152-.148-.152H31.179a4.026,4.026,0,0,1-3.99-4.095v-.152a5.626,5.626,0,0,0-5.467-5.612H19.654c-6.354,0-10.491,5-10.491,12.892v4.853a12.7,12.7,0,0,0,7.093,11.527v4.853L9.9,41.962A19.445,19.445,0,0,1,6.06,40.293ZM19.8,7.382H21.87a4.026,4.026,0,0,1,3.99,4.095,5.626,5.626,0,0,0,5.467,5.612h1.625a6.976,6.976,0,0,1,.148,1.668V23.61c-.3,6.37-5.319,11.375-11.525,11.072A11.3,11.3,0,0,1,10.788,23.61V18.757C10.788,13.3,13.152,7.382,19.8,7.382ZM18.028,40.6V35.743a12,12,0,0,0,7.979,0V40.6h0c0,1.365-2.069,1.972-3.99,1.972-1.921.3-3.99-.607-3.99-1.972ZM3.7,49.7a5.65,5.65,0,0,1,3.99-4.853L16.7,41.81a2.576,2.576,0,0,0,1.625,1.668,7.714,7.714,0,0,0,3.694.758c2.216,0,4.728-.758,5.319-2.578l9.013,3.033a6.036,6.036,0,0,1,3.99,4.853C40.34,49.7,3.7,49.7,3.7,49.7Z" transform="translate(-2.218 -1.012)" fill="#1e3a6d" stroke="#1e3b6e" stroke-width="0.25"/>
      </g>
    </g>
    <path id="Tracciato_65254" data-name="Tracciato 65254" d="M7941.608,3198.251v12.934s.594,7.143-5.53,9.029a9.82,9.82,0,0,1-2.756.344h.171" transform="translate(-7880.72 -3148.402)" fill="none" stroke="#1e3b6e" stroke-width="3"/>
    <g id="ico_omino_aggiungi-01" transform="translate(0 25.48)">
      <g id="Layer_1_2_" transform="translate(0)">
        <g id="XMLID_3_">
          <g id="Group">
            <path id="Path-2" data-name="Path" d="M17.559,69.559a3.3,3.3,0,0,0,1.783,2.069,7,7,0,0,0,3.714.862c2.228,0,4.754-.862,5.5-2.932l9.21,3.621a6.907,6.907,0,0,1,4.159,5.691H4.189c.3-2.587,1.931-5,4.159-5.691Z" transform="translate(-3.052 -29.124)" fill="#73d7ff" stroke="#1e3b6e" stroke-width="0.25"/>
            <path id="Path-3" data-name="Path" d="M36.614,59.694v4.853a1.923,1.923,0,0,1-1.33,1.517,7.811,7.811,0,0,1-2.807.455c-1.921,0-4.137-.607-4.137-1.972V59.694a12.444,12.444,0,0,0,4.137.607h.739A9.472,9.472,0,0,0,36.614,59.694Z" transform="translate(-12.521 -24.053)" fill="#fff" stroke="#1e3b6e" stroke-width="0.25"/>
            <path id="Path-4" data-name="Path" d="M14.832,12.792H13.8l-.148.152V13.1a22.583,22.583,0,0,0-.887,6.218v4.55a17.579,17.579,0,0,1-1.921-7.735c0-8.038,5.763-13.347,14.628-13.347,7.536,0,15.072,4.095,15.072,13.347a18.366,18.366,0,0,1-1.921,8.038v-4.55A20.275,20.275,0,0,0,37.44,13.1c-.148-.3-.3-.455-.591-.455H36.11c-2.364,1.517-5.763,1.062-11.082-1.365h-.739l-.148.152-.148.152v.152h0v.455l1.921,4.095A20.33,20.33,0,0,1,14.832,12.792Z" transform="translate(-5.516 -1.266)" fill="#fff" stroke="#1e3b6e" stroke-width="0.25"/>
            <path id="Shape-2" data-name="Shape" d="M21.914,42.719a7.811,7.811,0,0,0,2.807-.455,1.923,1.923,0,0,0,1.33-1.517V35.895a9.18,9.18,0,0,1-3.4.758h-.739a18.18,18.18,0,0,1-4.137-.607V40.9C17.777,42.113,19.993,42.719,21.914,42.719ZM11.275,11.78a19.72,19.72,0,0,0,11.23,3.488l-1.921-4.095v-.758l.148-.152.148-.152h.591c5.319,2.427,8.718,2.882,11.082,1.365h.739c.3,0,.443.152.591.455a20.275,20.275,0,0,1,1.182,6.522V23a18.366,18.366,0,0,0,1.921-8.038c0-9.252-7.536-13.347-15.072-13.347-8.866,0-14.628,5.308-14.628,13.347A17.579,17.579,0,0,0,9.207,22.7V18.15a22.583,22.583,0,0,1,.887-6.218h0l.148-.152h1.034Zm11.082,5a20.3,20.3,0,0,1-11.082-3.337,18.189,18.189,0,0,0-.591,4.853v5a11.382,11.382,0,1,0,22.755,0v-5a19.734,19.734,0,0,0-.739-5.157,7.771,7.771,0,0,1-3.251.607,20.248,20.248,0,0,1-6.5-1.517l1.773,3.337v.607a.147.147,0,0,0-.148.152v.152c-.148,0-.148.152-.3.152-.443.152-.443.152-.591.152ZM16.3,40.141v-5a13.651,13.651,0,0,1-6.8-8.342c-2.364-4.095-3.99-7.735-3.99-11.83,0-8.8,6.5-14.712,15.958-14.712,9.9,0,16.549,5.763,16.549,14.712,0,4.55-1.625,8.038-3.99,11.982a12.686,12.686,0,0,1-6.8,8.342v5l9.309,3.185a8.535,8.535,0,0,1,3.694,2.73,7.368,7.368,0,0,1,1.478,4.247.7.7,0,0,1-.739.758H2.558a.549.549,0,0,1-.591-.607A7.26,7.26,0,0,1,6.99,43.478Zm2.069,3.488a3.04,3.04,0,0,1-1.773-1.82L7.286,44.994a6,6,0,0,0-4.137,5H40.68a5.968,5.968,0,0,0-4.137-5l-9.161-3.185c-.591,1.82-3.1,2.578-5.467,2.578A9.932,9.932,0,0,1,18.368,43.629Z" transform="translate(-1.959 -0.253)" fill="#1e3b6e" stroke="#1e3b6e" stroke-width="0.25"/>
          </g>
        </g>
      </g>
    </g>
    <g id="ico_omino_aggiungi-donna" transform="translate(0 25.48)">
      <ellipse id="Oval" cx="8.694" cy="8.694" rx="8.694" ry="8.694" transform="translate(28.651 37.768)" fill="#1e3b6e" stroke="#fff" stroke-width="2"/>
    </g>
    <path id="Tracciato_65255" data-name="Tracciato 65255" d="M8046.686,3151.39,8041.5,3157l5.187,4.492" transform="translate(-7993.653 -3084.574)" fill="none" stroke="#1e3b6e" stroke-linecap="round" stroke-linejoin="round" stroke-width="3"/>
    <path id="Path-5" data-name="Path" d="M8.134,11.759a1.781,1.781,0,0,1-.7-.212A1.129,1.129,0,0,1,7.21,9.988l7.279-9A1.25,1.25,0,0,1,16.115.78a1.129,1.129,0,0,1,.222,1.558l-7.279,9A1.322,1.322,0,0,1,8.134,11.759Z" transform="translate(28.482 64.719)" fill="#fff"/>
    <path id="Path-6" data-name="Path" d="M5.321,12.614a.87.87,0,0,1-.712-.293L.6,8.6A.818.818,0,0,1,.6,7.3a1.028,1.028,0,0,1,1.423,0L6.032,11.03a.818.818,0,0,1,0,1.291A1.013,1.013,0,0,1,5.321,12.614Z" transform="translate(31.441 63.863)" fill="#fff"/>
  </g>
</svg>
