<svg xmlns="http://www.w3.org/2000/svg" width="85.839" height="75.933" viewBox="0 0 85.839 75.933">
  <g id="Componente_83_1" data-name="Componente 83 – 1" transform="translate(2.06 2)">
    <path id="Tracciato_65286" data-name="Tracciato 65286" d="M158.877,258.793l36.476-63.178a4.378,4.378,0,0,1,7.582,0l36.476,63.178a4.378,4.378,0,0,1-3.791,6.566H162.668A4.378,4.378,0,0,1,158.877,258.793Z" transform="translate(-158.284 -193.426)" fill="#73d7ff" stroke="#003575" stroke-width="4"/>
    <g id="Raggruppa_22223" data-name="Raggruppa 22223" transform="translate(36.48 19.344)">
      <g id="Raggruppa_22222" data-name="Raggruppa 22222" transform="translate(0.134 0)">
        <path id="Tracciato_65284" data-name="Tracciato 65284" d="M401.7,350.363a2.051,2.051,0,0,1-1.984-1.93l-2.219-22.72c-.321-3.905,1.163-5.921,4.2-5.921s4.525,2.016,4.2,5.921l-2.219,22.72A2.051,2.051,0,0,1,401.7,350.363Z" transform="translate(-397.458 -319.791)" fill="#1e3a6d"/>
      </g>
      <path id="Tracciato_65285" data-name="Tracciato 65285" d="M405.171,548.825a4.294,4.294,0,1,1-4.293-4.293A4.293,4.293,0,0,1,405.171,548.825Z" transform="translate(-396.584 -510.128)" fill="#1e3a6d"/>
    </g>
  </g>
</svg>
