<svg xmlns="http://www.w3.org/2000/svg" xmlns:xlink="http://www.w3.org/1999/xlink" width="1206.714" height="378.606" viewBox="0 0 1206.714 378.606"><defs><style>.a{fill:#549be6;}.b,.v{fill:none;}.c{fill:#97cbfd;}.d{clip-path:url(#a);}.e{fill:#2560ad;}.f{fill:#dd4078;}.g{fill:#d8e3f0;}.h{fill:#6c5bf7;}.i{fill:#dea749;}.j{fill:#043575;}.k{fill:#fff;}.l{fill:#a56096;}.m{fill:#e655be;}.n{fill:#d19fc6;}.o{fill:#a57f9d;}.p{fill:#3b2ad1;}.q{fill:#2c1f9c;}.r{fill:#c6d2f2;}.s{fill:#2b337c;}.t{fill:#ffc2b0;}.u{fill:#3969c3;}.v{stroke:#fff;stroke-linecap:round;stroke-linejoin:round;stroke-width:3.12px;}.w{fill:#467de4;}.x{fill:#21275e;}.y{fill:#f09a82;}.z{fill:#21ded5;}.aa{fill:#a8c4e5;}.ab{fill:#e1eaf4;}.ac{fill:#5f6ccf;}.ad{fill:#345faf;}.ae{fill:#d3f2f2;}.af{fill:#cae7e2;}.ag{fill:#3c68ba;}.ah{clip-path:url(#b);}.ai{clip-path:url(#c);}.aj{fill:#7cb4f7;}.ak{opacity:0.3;mix-blend-mode:multiply;isolation:isolate;}.al{clip-path:url(#d);}.am{fill:#abcffa;}.an{fill:#3551a2;}.ao{fill:#4b6ccc;}.ap{fill:#69a5ed;}.aq{fill:#478bde;}.ar{fill:#e3f0f9;}.as{fill:#f9bcaa;}.at{fill:#263238;}.au{fill:#ffb288;}.av{fill:#1c7dc6;}.aw{fill:#532523;}.ax{fill:#682e2e;}.ay{fill:#3728d3;}.az{fill:#18272d;}.ba{fill:#0b63b2;}.bb{fill:#4432db;}.bc{fill:#e6a677;}.bd{fill:#004da0;}.be{fill:#ffcd69;}.bf{fill:#ffe092;}.bg{fill:#5abddc;}.bh{fill:#cfe4ff;}.bi{fill:#915151;}.bj{fill:#a1bee3;}</style><clipPath id="a"><rect class="a" width="152.684" height="158.98" transform="translate(0 0)"/></clipPath><clipPath id="b"><rect class="b" width="209.439" height="255.982"/></clipPath><clipPath id="c"><rect class="c" width="209.439" height="255.982"/></clipPath><clipPath id="d"><rect class="b" width="67.503" height="85.38"/></clipPath></defs><g transform="translate(-195.693 -554.408)"><g transform="translate(318.916 449.102)"><g class="d" transform="translate(168.438 164.408)"><path class="a" d="M97.745,67.15s-4.184.813-3.372,4.076,4.309,3.444,4.309,3.444,1.419-5.594,2.651-5.144.716,5.745.716,5.745a3.753,3.753,0,0,0,3.287,2.91,11.416,11.416,0,0,1,4.037.885s-3.333-10.688-2.052-8.434,3.594,8.3,4.811,9.259,6.248-1.218,6.248-1.218-.614-.529-3.12-3.034c-.656-.656-1.319-1.271-1.932-1.845C111.6,72.179,110.289,70.9,110.717,70c.58-1.215,3.022.229,3.545,2.028s7.375,6.362,7.375,6.362l3.565-4.307s-5.381,1.476-6.857-1.575a16.63,16.63,0,0,1-1.631-4.284s5.331,3.375,8.007,2l2.677-1.37-3.149-1.633-2.645-1.37,7.281.262,2.932-3.544c1.657-2,2.335-1.652,2.335-1.652a25.979,25.979,0,0,0-1.217-3.39c-.759-1.7-4.525.374-4.525.374a3.858,3.858,0,0,1,1.777-3.354,19.317,19.317,0,0,1,4.007-1.592s-.518-2.686-1.054-2.581-8.154,2.152-8.551,6.212-2.67.126-.837-2.327S131.3,48.8,131.3,48.8s-2.963-1.769-4.97-1.733c-.835.016-2.181,1.514-3.469,3.259-1.808,2.451-3.5,5.389-3.5,5.389s-2.879,2.624-2.658.68,7.277-9.172,7.277-9.172,2.075-4.164-3.212-1.666-8.889,10.271-8.889,10.271-.636,2.243-.13-1.041,2.3-9.075,5.111-8.849-1.423-4.653-4.616-.11a22.478,22.478,0,0,0-3.762,9.156s-1.345.953-1.109-3.028a6.137,6.137,0,0,1,3.362-5.308s-3.412-5.154-5.1.3a76.827,76.827,0,0,0-2.436,11.1s-1.544,2.748-1.888-.978,2.311-6.932,2.311-6.932-1.411-4.395-3.634,2.7-.53,7.973-.53,7.973a34.11,34.11,0,0,0-4.274.426,4.442,4.442,0,0,0-3.4,4.984c.344,2.76,1.257,3.233,1.257,3.233Z" transform="translate(18.491 31.715)"/><path class="a" d="M72.69,27.574c3.637-.947,8.507-2.651,11.221-5.409,4.707-4.784,11.682-5.947,4.707-4.784a62.827,62.827,0,0,0-8.211,2.195A70.649,70.649,0,0,1,92.118,11.5L94.1,14.523l.692-4.427A72.576,72.576,0,0,1,102.8,6.68c12.142-4.331,22.04-1.406,28.186,3.664-4.892.012-9.179.81-5.435.465,4.91-.453,9.848,11.671,9.848,11.671l2.433.8a6.9,6.9,0,0,1-3.3,5.6A68,68,0,0,0,126.781,16.5c-5.3-6.329-10.843-7.085-10.843-7.085s7.606,5.37,10.462,13.651a62.524,62.524,0,0,0,3.2,7.619c-6.177,1-4.61-5.873-10.607-6.377-1.24-4.06-3.146-8.6-5.873-10.886a9.047,9.047,0,0,0-10.881-1.037l4.318,1.743c2.544,1.028,4.624,6.844,5.9,11.449-6.88,3.1-5.605,10.136-9.485,11.067C97.332,33.13,97.22,24.56,97.351,21.69l.066-.96s-.038.357-.066.96L96.322,36.761c-5.872-1.712-6-8.643-6-8.643s-6.658,1.211-10.961,6.2-9.444,1.085-9.444,1.085c-1.4-.543-.383-3.687,2.777-7.831" transform="translate(13.968 3.308)"/><path class="a" d="M80.134,50.066C70.1,83.746,66.871,126.157,66.058,139.782c.177.164.351.334.518.52a8.735,8.735,0,0,1,1.317.5c.163.057.321.083.481.126.757-12.579,4.018-58.6,12.753-90.2,9.258-33.494,23.094-43.911,23.094-43.911S92.265,9.369,80.134,50.066" transform="translate(13.315 4.922)"/><path class="a" d="M72.714,15.061a14.606,14.606,0,0,0-4.583-8.04c-4.77-.272-9.5.6-7.362-1.593a5.059,5.059,0,0,1,3.462-1.261,29.548,29.548,0,0,0-6-2.593A12.6,12.6,0,0,0,52.309,4C48.9,7.109,46.087,6.5,47.084,4,47.624,2.646,51.9,1.583,55.706.894,50.544-.3,45.442-.264,42.355.791l-.249,2.5L38.575,1.915C32.438,4,21.224,9.028,23.555,17.413a1.667,1.667,0,0,0,1.133-1.282c.995-3.568,11.7-7.318,13.437-7.209s-4.977,2.572-8.1,4.357-4.3,7.726-4.309,7.774c2.493,2.031,6.365,1.178,10.474-.5a21.118,21.118,0,0,1,2.933-9.43c3.238-5.168,2.986.016.434,2.87-1.655,1.85-1.161,3.43-.255,5.18,4.972-2.346,9.876-5.13,12.761-4.824,3.554.377,9.82,4.246,14.57,5.855-3.649-2.837-10.336-7.773-14.285-9.082-5.689-1.886,1.706-1.411,7.429,1.8a138.93,138.93,0,0,0,13,6.041,8.8,8.8,0,0,0-.064-3.9" transform="translate(4.684 0)"/><path class="a" d="M73.169,142.524a6.787,6.787,0,0,0,1.7.26c.112,0,.219,0,.326,0,.047-5.928.258-57.927-6.014-90.272C62.937,20.3,42.007,4.578,42.007,4.578S64.64,25.221,69.183,59.494c2.069,15.608,3.8,76.334,3.987,83.03" transform="translate(8.467 3.309)"/><path class="a" d="M79.251,122.777a4.556,4.556,0,0,0,.944-.713,5.578,5.578,0,0,1,.657-.539c-.565-9.625-3.823-48.814-20.136-68.668C45.732,34.619,35.109,31.468,35.109,31.468S68.351,48.245,74.428,89.8c3.972,27.163,4.693,32.085,4.823,32.979" transform="translate(7.077 22.742)"/><path class="a" d="M68.522,47.494c-1.792,3.895-5.987,9.375-11.736,9.375H56.51c-.344-3.1-1.015-7.9-2.12-10.467-1.552-3.6-7.891-4.86-9.063-5.063a8.838,8.838,0,0,1,5.518,3.737c.9,1.552.9,6.624.679,11.323-1.814-.246-3.875-.579-6.083-.953.142-1.585.351-3.371.672-5.116.9-4.923-5.211-9.8-5.569-10.083a18.328,18.328,0,0,1,3.867,8,15.609,15.609,0,0,1-.463,6.946c-3.493-.61-7.271-1.328-10.958-2.012,1.067-4.966,2.538-12.725,1.754-14.384a1.9,1.9,0,0,0-.71-.825,2.479,2.479,0,0,0-2.112-.16c-1.053.343-1.836,1.156-1.343,1.649.971.973,2.426,5.287,1.941,7.985-.216,1.24-.649,3.435-1.044,5.457-1.979-.363-3.919-.717-5.757-1.037.955-2.88,1.912-6.539,1.224-8.081-1.217-2.7-3.4-1.125-3.643,4.463a8.894,8.894,0,0,1-.612,3.092c-2.956-.481-5.48-.834-7.256-.953,1.12-2.515,2.381-5.49,3.255-7.32,1.313-2.73-4.986,3.928-7.913,7.073-4.972-.6-9.4-2.792-10.5-8.936A15.161,15.161,0,0,1,5.83,36.694c5.062-2.012,12.728,4.763,13.035-.2S7.271,31.867,5.345,34.982C4.6,36.181,2.44,37.9.067,39.573.03,39.092,0,38.589,0,38.054,0,28.346,6.875,23.4,11.323,22.844c4.929,1.854,9.333,4.133,10.52,6.358,2.546,4.774,2.867,5.373,2.9,5.447a74.608,74.608,0,0,0-3.874-10.434C29.92,27.18,36.459,34.083,42.186,37.7a12.258,12.258,0,0,0,6.353,2.291c.448,0,.881-.012,1.284-.033,7.756-.374,8.458-4.141,13.758-4.141,4.487,0,5.576,3.8,5.83,6.624-.612-.663-1.269-1.4-1.948-2.2-3.4-4.057-11.885-1.478-11.885-1.478s4.12,1.113,8.488,2.794c2.284.887,3.665,3.575,4.457,5.94" transform="translate(0 16.509)"/><path class="a" d="M47.567,34.457S39.691,33.2,31.779,32.466c-.7-.064-1.411-.117-2.112-.16a29.832,29.832,0,0,0-7.712.429C13.474,34.564,11.488,35.367,11.19,35.5c.874-.5,15.244-8.477,28.741-3.3a12.255,12.255,0,0,0,6.353,2.291c.447,0,.881-.012,1.283-.033" transform="translate(2.255 22.011)"/><path class="a" d="M88.76,60.7c-11.838,13.275-20.195,47.334-20.195,47.334l.547.453c.136.01.266.034.406.036.159.005.311,0,.463,0,1.132-4.469,9.172-35.27,18.29-45.544,14.809-16.686,44.811-7.308,44.811-7.308s-30-11.03-44.322,5.027" transform="translate(13.82 37.566)"/><path class="a" d="M47.81,52.135S55.7,48.42,61.456,58c5.723,9.526,14.837,50.352,14.837,50.352l-1.853.575s-8.5-39.689-14.5-48.494c-3.817-5.6-7.3-7.592-10.478-6.424s-5.594-1.855-1.653-1.876" transform="translate(9.224 37.165)"/><path class="a" d="M43.452,61.3s7.315-4.963,11.855-4.507,12.408-1.244,13.317,1.342l.907,2.586s4.842-2.758,6.356,1.874L77.4,67.225s-4.539-2.8-7.768-2.846L66.4,64.332s8.877,3.616,11,6.508a28.6,28.6,0,0,0,2.521,3.227S78.914,84.148,77.1,82.991c-.954-.608-3.218-3.373-5.824-6.091-2.354-2.453-4.988-4.87-7.19-5.625-4.64-1.59-4.956-1.328-4.956-1.328S75.282,81.4,77.4,85.738,74.256,97.373,72.558,97.31,62.066,83.859,57.93,78.651,49.657,72,49.657,72s2.044,5.2,6.255,7.377S68.22,93.4,69.127,102.083s-6.355,8.677-6.355,8.677S50.263,82.846,48.952,79.375s-4.743-9.356-4.238-4.534,2.825,7.282,7.97,15.237,9.179,19.959,9.18,20.683-4.539,7.232-5.951,5.352-5.448-22.564-8.374-26.758-3.33-2.748-2.219,0,7.869,19.527,7.263,24.011-6.658,3.087-6.658,3.087a38.829,38.829,0,0,0-1.413-11.766C42.8,99.336,39.973,88.92,39.166,91.813S43.4,113.365,42.8,115.534s-2.421,3.037-9.785,2.169-8.676-3.616-8.676-3.616S28.17,93.26,30.894,91.523s-5.347-3.182-6.558,4.774S22.4,115.6,20.7,111.629s-4.539-4.484-3.834-7.232,2.1-8.679-.111-5.785-2.138,4.121-2.916,2.892-3.126-3.182-1.109-5.786,8.978-13.6,13.721-13.74,10.188-1.3,5.749-2.892S17.233,87.244,16.417,89.5s-5.624,6.234-5.624,6.234-3.506-5.768-3.708-8.388,7.97-10.431,13.216-9.273,11.4-4.627,6.961-4.627S9.507,79.664,8.6,81.688,7.69,79.664,7.69,79.23,5.471,75.614,8.9,73.3,23.528,69.4,25.951,69.54s2.789-2.159-.018-1.874S9.2,72.432,8.9,71.419s-1.514-5.063,2.824-5.929,15.536.289,15.536.289-1.081-2.239-3.012-2.494-6.47.9-6.975.9-2.825-3.037,1.817-4.917,4.841,1.735,8.372.143,6.557-3.614,8.878-.722,7.111,2.6,7.111,2.6" transform="translate(1.408 40.945)"/><path class="a" d="M54.942,51.9c-1.569-.486-10.393-.8-16.115,9.633s-8.893,34.249-8.893,34.249S35.12,64.392,44.44,57.326c7.185-5.447,17.407-3.28,10.5-5.421" transform="translate(6.033 37.376)"/></g></g><g transform="translate(-10219.307 -7109.443)"><path class="e" d="M774.267,889.055,671.415,829.672a1.9,1.9,0,0,1,0-3.293l141-81.41a1.906,1.906,0,0,1,1.9,0l102.853,59.383c1.268.732-12.193.026,0,3.294l-141,81.409A1.9,1.9,0,0,1,774.267,889.055Z" transform="translate(9744.536 7153.147)"/><rect class="e" width="4.158" height="4.158" transform="translate(10415 7977.336)"/><rect class="f" width="3.764" height="3.764" transform="translate(10658.579 7954.238)"/><path class="e" d="M774.267,885.707,671.415,826.325a1.9,1.9,0,0,1,0-3.294l141-81.409a1.9,1.9,0,0,1,1.9,0l102.853,59.383a2.716,2.716,0,0,0,0,3.293l-141,81.409A1.9,1.9,0,0,1,774.267,885.707Z" transform="translate(9744.536 7153.009)"/><path class="g" d="M679.549,780.984V820.62l89.581,51.912V832.9Z" transform="translate(9744.913 7154.657)"/><path class="e" d="M774.267,845.416,671.415,786.033a1.9,1.9,0,0,1,0-3.293l141-81.409a1.9,1.9,0,0,1,1.9,0l102.853,59.381c-1.44.792-2.5,2.583,0,3.294l-141,81.409A1.9,1.9,0,0,1,774.267,845.416Z" transform="translate(9744.536 7151.332)"/><rect class="h" width="4.158" height="3.696" transform="translate(10415 7932.013)"/><rect class="i" width="4.158" height="2.772" transform="translate(10658.492 7910.759)"/><path class="e" d="M774.267,842.068,671.415,782.686a1.9,1.9,0,0,1,0-3.294l141-81.409a1.9,1.9,0,0,1,1.9,0l102.853,59.383a1.9,1.9,0,0,1,0,3.293l-141,81.409A1.9,1.9,0,0,1,774.267,842.068Z" transform="translate(9744.536 7151.192)"/><path class="j" d="M772.056,839.737v49.08L912.1,807.643c1.437-.827,1.825-3.5,1.8-5.162l-.316-14.414V777.814l.316-21.279Z" transform="translate(9748.764 7153.64)"/><g transform="translate(10538.81 7986.5)"><path class="k" d="M789.327,853.976c0,8.224,5.808,11.535,12.974,7.4s12.975-14.159,12.975-22.382-5.808-11.534-12.974-7.4S789.327,845.752,789.327,853.976Z" transform="translate(-789.327 -829.811)"/></g><path class="k" d="M845.653,834.852,888.94,809.86c4.911-2.835,8.93-10.513,8.93-17.061v-9.322c0-6.548-4.018-9.586-8.93-6.751l-43.287,24.992c-4.91,2.835-8.929,10.512-8.929,17.061V828.1C836.724,834.65,840.743,837.687,845.653,834.852Z" transform="translate(9751.454 7154.436)"/><path class="l" d="M774.267,834.255,671.415,774.872a1.9,1.9,0,0,1,0-3.293l141-81.409a1.9,1.9,0,0,1,1.9,0l102.853,59.381c1.268.732-12.193.026,0,3.294l-141,81.409A1.9,1.9,0,0,1,774.267,834.255Z" transform="translate(9744.536 7150.868)"/><rect class="m" width="4.158" height="4.158" transform="translate(10415 7920.256)"/><rect class="f" width="3.764" height="3.764" transform="translate(10658.579 7897.158)"/><path class="l" d="M774.267,830.907,671.415,771.525a1.9,1.9,0,0,1,0-3.293l141-81.409a1.9,1.9,0,0,1,1.9,0l102.853,59.383a2.717,2.717,0,0,0,0,3.294l-141,81.408A1.9,1.9,0,0,1,774.267,830.907Z" transform="translate(9744.536 7150.728)"/><path class="g" d="M679.549,726.184V765.82l89.581,51.912V778.1Z" transform="translate(9744.913 7152.376)"/><path class="l" d="M774.267,790.616,671.415,731.233a1.9,1.9,0,0,1,0-3.293l141-81.409a1.9,1.9,0,0,1,1.9,0l102.853,59.382c-1.44.792-2.5,2.583,0,3.294l-141,81.409A1.9,1.9,0,0,1,774.267,790.616Z" transform="translate(9744.536 7149.051)"/><rect class="m" width="4.158" height="3.696" transform="translate(10415 7874.933)"/><rect class="i" width="4.158" height="2.772" transform="translate(10658.492 7853.679)"/><path class="n" d="M774.267,787.269,671.415,727.886a1.9,1.9,0,0,1,0-3.293l141-81.409a1.9,1.9,0,0,1,1.9,0l102.853,59.382a1.9,1.9,0,0,1,0,3.293l-141,81.409A1.9,1.9,0,0,1,774.267,787.269Z" transform="translate(9744.536 7148.912)"/><path class="o" d="M772.056,784.937v49.08L912.1,752.843c1.437-.827,1.825-3.5,1.8-5.162l-.316-14.414V723.015l.316-21.28Z" transform="translate(9748.764 7151.359)"/><g transform="translate(10533.436 7924.969)"><ellipse class="k" cx="18.294" cy="10.56" rx="18.294" ry="10.56" transform="translate(0 31.586) rotate(-59.689)"/></g><path class="k" d="M845.653,780.052,888.94,755.06c4.911-2.835,8.93-10.513,8.93-17.061v-9.323c0-6.548-4.018-9.585-8.93-6.75l-43.287,24.992c-4.91,2.835-8.929,10.512-8.929,17.061V773.3C836.724,779.85,840.743,782.887,845.653,780.052Z" transform="translate(9751.454 7152.155)"/><path class="p" d="M749.146,763.471c1.92,0,40.323,13.846,40.288-17.962s-49.027,4.508-49.027,4.508Z" transform="translate(9747.447 7152.637)"/><path class="q" d="M706.424,828.923l12.6-12.8c1.7-1.01,5.546-1.48,8.167-1.168a2.513,2.513,0,0,1,2.182,2.293l.223,2.548c.447,3.663.125,4.2-2.119,5.533l-13.32,7.925c-2.243,1.335-5.692,1.524-7.665.42l-.558-.313C703.96,832.252,704.181,830.257,706.424,828.923Z" transform="translate(9745.956 7156.067)"/><path class="r" d="M727.846,817.04c0,3.771-9.171,3.771-9.171,0V804.785h9.171Z" transform="translate(9746.542 7155.647)"/><path class="q" d="M729.645,842.009l10.911-14.267c1.56-1.214,5.318-2.157,7.959-2.173a2.515,2.515,0,0,1,2.451,2l.536,2.5c.9,3.578.646,4.15-1.414,5.753l-12.234,9.516c-2.06,1.6-5.459,2.219-7.554,1.368l-.594-.24C727.613,845.619,727.585,843.612,729.645,842.009Z" transform="translate(9746.936 7156.512)"/><path class="r" d="M749.506,827.5c.468,3.741-8.632,4.88-9.1,1.138l-1.521-12.159,9.1-1.139Z" transform="translate(9747.383 7156.086)"/><path class="s" d="M748.318,734.372s-28.39,14.531-29.576,22.091c-1.041,6.64-2.187,45.953-1.52,55.191a3.691,3.691,0,0,0,2.073,3.079c2.812,1.339,7.892,2.805,9.589-2.925,2.392-8.081,1.569-35.7,7.292-43.6s34.129-19.054,34.129-19.054Z" transform="translate(9746.474 7152.717)"/><path class="s" d="M766.672,747.027s-31.764,15.836-32.7,23.036c-.815,6.285,3.106,42.089,4.116,51.09a3.747,3.747,0,0,0,2.362,3.068c2.892,1.143,7.869,2.2,9.349-3.181,2.126-7.737.371-33.852,5.84-41.542,2.968-4.171,10.6-8.884,23.621-15.031,5.955-2.811,10.222-14.516,2.984-15.443Z" transform="translate(9747.175 7153.244)"/><path class="t" d="M739.248,692.025l-6.058,23.226c-.522,2.761-1.46,6.787-2.14,11.514a27.683,27.683,0,0,0,5.549,20.846s2.155-11.372,4.293-16.723a185.031,185.031,0,0,0,6.826-20.837C747.7,709.447,739.248,692.025,739.248,692.025Z" transform="translate(9747.047 7150.955)"/><path class="u" d="M748.106,676.885l-14.248,24.477c1.948,7.78,6.164,11.739,11.49,13.829l4.527-30.245Z" transform="translate(9747.175 7150.325)"/><path class="v" d="M736.968,697.541s2.288,6.763,15.07,11.136" transform="translate(9747.305 7151.185)"/><path class="w" d="M743.439,735.836c2.2-12.044,1.716-19.395-.272-36.021,0-23.021,7.01-31.583,21.513-26.291l5.992,1.592c17.5,9.43,26.395,8.956,23.263,27.481L790.87,743.2C790.87,764.108,742.324,760.411,743.439,735.836Z" transform="translate(9747.562 7150.122)"/><path class="x" d="M761.794,674.519s2.29,2.116,3.447,2.356,13.6-9.814,9.1-21.089c-2.852-7.14-16.345-1.547-16.345-1.547Z" transform="translate(9748.18 7149.295)"/><path class="t" d="M765.907,683.955l-.7.119a4.348,4.348,0,0,1-5-3.548l-2.251-13.255a4.347,4.347,0,0,1,3.548-5l.7-.119a4.348,4.348,0,0,1,5,3.549l4.035,12.418C771.638,680.469,768.258,683.556,765.907,683.955Z" transform="translate(9748.176 7149.709)"/><path class="y" d="M759.413,675.845a11.869,11.869,0,0,0,9.406-5.332s-3.583,8.326-8.777,9.038Z" transform="translate(9748.237 7150.06)"/><path class="t" d="M764.131,670.11c-1.32,6.331-5.8,8.417-10.006,4.659S747.58,662.832,748.9,656.5s5.8-8.417,10.007-4.659S765.452,663.779,764.131,670.11Z" transform="translate(9747.785 7149.205)"/><path class="t" d="M770.344,667.731c-1.32,6.331-7.8,9.065-12.005,5.307s-6.545-11.937-5.226-18.268,5.8-8.416,10.007-4.658S771.665,661.4,770.344,667.731Z" transform="translate(9747.961 7149.133)"/><path class="x" d="M761.017,654.551s.646,11.978,10.4,13.04c0,0,9.477-7.839-.144-17.85-8.481-8.824-18.094.6-18.094.6Z" transform="translate(9747.979 7149.039)"/><path class="z" d="M748.546,659.507a11.373,11.373,0,0,1,8.934-5.375l-4.1-3.963S748.237,650.143,748.546,659.507Z" transform="translate(9747.785 7149.212)"/><path class="x" d="M767.4,660.679c-2.653-2.545-7.384-1.534-13.737,2.254-6.208,1.446-8.3-5.586-8.3-5.586-1.642-3.658.6-5.815,4.256-7.458l9.528-4.279c5.385-2.453,11.632,1.258,13.274,4.916l.368.585C774.438,654.77,771.06,659.036,767.4,660.679Z" transform="translate(9747.631 7148.991)"/><circle class="t" cx="2.847" cy="2.847" r="2.847" transform="translate(10513.591 7819.238) rotate(-67.39)"/><path class="k" d="M759.479,675.65s-4.811,6.716,1.975,9.6c10.748,4.573,14.087-7.594,12.412-8.3l-3.395-1.754a4.582,4.582,0,0,1-1.075,6.225c-2.528,2.129-7.071,2.585-9.021-.745Z" transform="translate(9748.172 7150.255)"/><path class="u" d="M776.981,698.7v39.425l7.278-4.271Z" transform="translate(9748.969 7151.233)"/><path class="aa" d="M771.132,751.869l-3.363-1.187-.395-.4-.254-.45-25.337-13.175a1.294,1.294,0,0,0-1.123.044l-9.674,5.673-.017-.157-1.824.729.081.753h.013a.427.427,0,0,0,.2.195l26.366,13.711a.146.146,0,0,1,.07.1c.551,2.019,1.47,3.826,3.193,2.777l10.713-6.314a2.57,2.57,0,0,0,1.349-2.3Z" transform="translate(9746.979 7152.808)"/><path class="ab" d="M757,759.748l-30.363-15.789c-.351-.183-.344-.505.016-.717l12.9-7.565a1.492,1.492,0,0,1,1.293-.052l30.363,15.789c.351.183.345.505-.016.717L758.3,759.7A1.5,1.5,0,0,1,757,759.748Z" transform="translate(9746.864 7152.764)"/><path class="aa" d="M756.891,749.25l-7.349-3.821c-.084-.044-.083-.122,0-.173l3.123-1.831a.358.358,0,0,1,.313-.013l7.349,3.821c.086.045.083.123,0,.174l-3.123,1.831A.359.359,0,0,1,756.891,749.25Z" transform="translate(9747.825 7153.092)"/><path class="k" d="M754.55,742.418a3.441,3.441,0,0,0-1.527-1.905L722.9,725.083a.77.77,0,0,0-.64-.1h0l0,0a.342.342,0,0,0-.134.108l-.84.945.848-.073,4.518,16.685a3.445,3.445,0,0,0,1.527,1.9l28.479,14.59.97.932.133.229c.555.113,1.762-.771,1.762-.771Z" transform="translate(9746.651 7152.325)"/><path class="ac" d="M757.405,760.956s-31.451-16.615-31.645-17.335l-4.569-16.869c-.195-.72.173-1.034.821-.7l30.118,15.43a3.44,3.44,0,0,1,1.527,1.9l4.568,16.869C758.421,760.974,758.053,761.287,757.405,760.956Z" transform="translate(9746.646 7152.365)"/><path class="k" d="M739.925,744c.243.9-.586,1.1-1.853.448a5.741,5.741,0,0,1-2.731-2.8c-.243-.9.587-1.1,1.853-.448A5.745,5.745,0,0,1,739.925,744Z" transform="translate(9747.234 7152.985)"/><path class="t" d="M779.119,698.7l3.99,35.334c.155,1.892-28.9,11.2-28.9,11.2l2.446,10.239,29.716-7.606c7.855-3.293,7.65-9.3,7.56-14.235l-.55-30.618Z" transform="translate(9748.022 7151.233)"/><path class="u" d="M777.289,703.212l2.505,26.173c.741,2.167,20.29-2.3,19.52-5.538-.136-.571-2.151-31.934-10.924-39.1C781.263,678.931,775.553,691.14,777.289,703.212Z" transform="translate(9748.969 7150.59)"/><path class="v" d="M779.628,721.1s8.1,2.1,18.137-5.277" transform="translate(9749.08 7151.945)"/></g><g transform="translate(-9135 -7019.414)"><path class="w" d="M458.338,1151.145l-132.624,76.571,8.39,7.12,124.235-71.727,10.361-5.982Z" transform="translate(10029.258 6524.855)"/><path class="ad" d="M456.125,1161.53l-56,32.329-5.583-13.054c-3.517-6.852-11.2-8.114-19.656-3.23l-30.4,17.552c-6.958,4.017-12.6,13.787-12.6,21.821v129.8c0,3.626,2.86,8.58,6,10.392a4.944,4.944,0,0,0,.755.36L361.9,1250.1l94.225-54.4,10.361-5.981v-34.164Z" transform="translate(10031.472 6526.434)"/><path class="ae" d="M344.271,1244.435V1351.9l134.361-76.747V1167.688Z" transform="translate(10035.909 6530.785)"/><path class="k" d="M346.715,1245.79l-9.262-5.136,134.361-76.747,9.262,5.136Z" transform="translate(10033.466 6529.43)"/><path class="af" d="M346.715,1333.006l-9.262-5.136V1220.4l9.262,5.136Z" transform="translate(10033.466 6549.682)"/><path class="w" d="M490.572,1178.886l-27.334,15.781-10.361,5.981L368.091,1249.6l-21.464,99.135-1.126,5.2a10.251,10.251,0,0,1-4.552,6.777l133.487-77.123a10.035,10.035,0,0,0,5.661-7.363l22.591-104.336Z" transform="translate(10034.719 6532.292)"/><path class="ag" d="M488.577,1167.944l-30.01,17.326-10.361,5.982-94.225,54.4,9.44,5.362,84.785-48.95,10.361-5.982L485.9,1180.3l12.115-6.995Z" transform="translate(10039.39 6530.876)"/><path class="w" d="M341.378,1354.04a4.942,4.942,0,0,1-.755-.36c-3.139-1.812-6-6.766-6-10.392v-129.8c0-8.034,5.64-17.8,12.6-21.821l30.4-17.552c4.888-2.823,9.511-3.579,13.226-2.4h0l-8.321-5.1-.033-.021h0c-3.979-2.265-9.422-1.811-15.233,1.543l-30.4,17.553c-6.957,4.017-12.6,13.786-12.6,21.82v135.779c0,7.36,4.806,15.686,11.18,19.365a12.93,12.93,0,0,0,6.432,1.87,9.692,9.692,0,0,0,3.946-.822c.239-.106.463-.235.69-.359.076-.042.158-.078.232-.121l.186-.107a10.251,10.251,0,0,0,4.552-6.777l1.126-5.2L374.073,1252l-9.439-5.362Z" transform="translate(10028.737 6529.89)"/></g><g transform="translate(955 554.408)"><g class="ah"><g class="ai"><path class="aj" d="M157.322,206.278c-.127.381-11.535,40.432-11.662,40.686-2.026,8.491-3.168,12.041-9.759,15.843-15.877,9.229-43.139,3.989-46.388-9-.127-.38-13.69-48.037-13.816-48.418-2.408-7.478,1.522-15.59,11.663-21.42,27.756-15.956,77.874-3.25,69.963,22.308" transform="translate(-4.871 -11.489)"/><g class="ak" transform="translate(85.785 170.601)"><g class="al"><path class="aj" d="M158.406,206.642c-.123.37-11.527,40.426-11.664,40.687-2.017,8.48-3.17,12.034-9.756,15.835-14.683,8.535-39.1,4.706-45.243-6.2,10,3.541,23.822,3.418,33.579-2.291,6.6-3.8,7.74-7.341,9.77-15.835.124-.262,11.527-40.3,11.651-40.687a16.2,16.2,0,0,0-3.019-15.7c11.143,5.036,18,13.489,14.683,24.193" transform="translate(-91.743 -182.449)"/></g></g><path class="am" d="M87.306,183.929c-16.3,9.412-16.389,24.673-.192,34.086s42.539,9.41,58.842,0,16.39-24.668.192-34.08-42.543-9.412-58.842,0" transform="translate(-4.872 -11.486)"/><path class="an" d="M154.273,202.082a10.336,10.336,0,0,1-.579,2.2c-5.445,15.351-41.879,21.837-63.31,10.311-5.444-2.9-8.8-6.488-10.194-10.194-2.317-6.314,1.1-13.149,10.31-18.015,24.617-13.09,66.611-2.78,63.773,15.7" transform="translate(-5.162 -11.722)"/><path class="ao" d="M153.742,204.816c-5.445,15.35-41.879,21.837-63.31,10.31-5.444-2.9-8.8-6.487-10.194-10.194,1.332-3.765,4.808-7.415,10.31-10.369,21.721-11.527,57.749-4.981,63.194,10.253" transform="translate(-5.21 -12.254)"/><path class="ap" d="M116.929,205.448c-3.423-3.651-22.825-31.27-34.695-51.585s-22.825-29.444-22.825-29.444l-2.053,1.826s21.911,30.357,26.476,38.8,25.793,37.661,26.477,39.259,6.619,1.142,6.619,1.142" transform="translate(-3.725 -8.079)"/><path class="aq" d="M74.411,117.237c3.474-4.292,14.991,5.867,19.332,8.7-1.776-11.181-12.86-20.008-14.311-21.25-18.945-16.206-33.553,1.6-33.553,1.6a19.89,19.89,0,0,0-8.674-10.044c-9.884-5.276-20.894,1.512-22.6,2.562a25.159,25.159,0,0,0-2.455,1.717c6.98-.425,17.292-.456,16.836,3.027-.48,3.671-14.8,4.442-22.747,3.4C.161,116.026.006,126.823,0,127.508a39.5,39.5,0,0,0,.827,8.075,28.521,28.521,0,0,0,6.021-2.369c14.151-7.076,25.336-12.782,13.923,0-7.8,8.733-11.544,14.8-14.959,15.95a41.772,41.772,0,0,0,6.057,8.473c2.986,3.2,8.363,7.8,10.044,15.749a23.793,23.793,0,0,1,.456,6.39c16.886-12.559,18.817-13.923,22.369-15.748,6.063-3.118,6.606-2.31,15.353-5.546-.814-4.1-1.891-9.848-.516-16.365,1.749-8.309,11.878,3.7,12.321,11.549,7.312-3.265,10.417-5.4,13.242-8.126,3.16-3.054,7.085-6.844,8.4-12.687a18,18,0,0,0,.388-2.606c-6.966-1.62-22.771-9-19.519-13.01M44.51,157.18c-2.967-1.6-.529-12.243.684-14.15,1.6-2.511,2.282,15.749-.684,14.15" transform="translate(0 -6.12)"/><path class="c" d="M99.729,28.725A57.847,57.847,0,0,0,84.492,14.682q-.118,1.778-.237,3.557a73.739,73.739,0,0,1,17.784,22.527c12.484,24.819,1.081,39.887,3.2,89.871,1.116,26.325,5.81,58.213,5.81,58.214,1.148.29,2.717.483,3.794-.356,2.705-2.108.263-9.139-1.186-14.464-2.3-8.457-2.143-17.4-3.319-26.084-.78-5.757-1.944-11.861-1.422-36.992.5-23.988,10.251-56.28-9.187-82.229" transform="translate(-5.471 -0.953)"/><path class="ap" d="M123.159,198.133c3.749-40.964,9.142-71.108,13.889-80.248,4.621-8.9,12.014-11.574,21.091-9.261-17.78,3.226-21.9,15.985-30.351,88.995Z" transform="translate(-7.998 -7.003)"/><path class="c" d="M124,187.255c-10.478-51.649-4.351-88.377,3.467-112.68,6.084-18.911,17.207-42.778,16.362-43.157-.728-.325-9.435,17.164-13.042,25.135-9.2,20.337-22.672,61.5-13.345,129.93,0,0,2.314,16.59,6.559.771" transform="translate(-7.422 -2.04)"/><path class="ap" d="M132.388,204.239c-1.293,9.238-24.17,9.27-25.453-.043,1.279-9.239,24.167-9.288,25.453.043" transform="translate(-6.944 -12.809)"/><path class="aq" d="M212.3,126.074c-4.619-5.6,2.3-.331-15.168-6.923s-24.727-4.945-21.428-9.559,17.473,1.317,17.473,1.317l19.123,9.233s-3.63-11.538-16.815-20.771S190.544,93.1,170.1,91.458s-16.813-3.625-21.759,4.613-2.636,12.2-8.57,9.892c0,0-3.625-30.331-24.069-25.716s-16.814,7.586-14.174,17.8c1.158,4.485,2.063,5.859,2.963,7.274,1.3-1.621,2.868-5.594,12.2-2.656,11.542,3.625,7.913,3.294-1.979,6.26-16.4,4.922,1.979,22.355,1.979,23.738,0,.989,6.923-13.846,13.846-13.846s9.565,1.65.989,9.89-17.472,4.287-5.6,21.759c26.962,39.7,3.517-.2,11.869-13.183,5.935-9.233,9.89-17.8,8.9-5.935-2.945,35.344-4.132,37.776,19.528,45.365,3.036.973,6.823,1.864,8.734,5.2,2.135,3.722.489,7.673,2.717,9.343.858.643,2.435.53,5.617-.561,11.537-3.956,12.858-13.189,19.449-20.771s-9.228-13.189-12.2-20.77-7.913-4.946-12.2-14.178-5.277-16.156,5.934-9.891,20.44,8.571,23.738,14.836,1.648,9.56,5.277,14.506,3.624-22.749-.988-28.353M178.675,154.1c-4.287-1.652-10.222-16.156-10.222-16.156,6.592-.989,14.5,17.8,10.222,16.156" transform="translate(-6.459 -5.18)"/><path class="ap" d="M149.272,18.32c6.729-4.808,15.33-1.961,19.766-.493,1.073.356,19.447,6.671,20.629,18.5.734,7.347-5.7,11.507-4.858,23.11.091,1.245.395,4.2-.264,4.285-.451.057-2.689-15.043-20.642-16.132-23-1.393-24.388,12.543-37.628-2.091C125,44.09,122.3,40.422,122.833,37.09c.785-4.948,8.894-9.226,20.167-9.014a17.147,17.147,0,0,1,6.271-9.756" transform="translate(-7.972 -1.016)"/><path class="c" d="M79.283,14.914c1.6-1.37,9.383-11.282,18.97-2.608s-4.646,29.962-9.439,33.615.229-18.26-4.793-18.488,3.2,16.206-3.2,26.7a37.085,37.085,0,0,1-16.206,14.38S76.26,49.572,72.379,43.41,68.5,32.454,66.216,40.9s-2.739,21.455-10.5,26.248S45.445,70.8,45.445,70.8C57.087,61.1,57.592,51.144,56.167,50.26c-.94-.583-3.114,1.756-5.016,3.878-10.12,11.3-10.979,15.493-16.685,19.11-4.543,2.88-10.927,4.613-12.775,2.485-1.764-2.032,1.012-7.124,2.1-9.125,3.6-6.588,7.768-8.336,16.6-17.31,3.626-3.686,6.624-6.761,6.035-7.588-.725-1.018-7.715.418-12.168,5.125-7.989,8.445-15.522,24.65-18.717,20.541a22.018,22.018,0,0,1-1.826-22.825c4.793-9.358,15.75-16.434,27.163-16.434s24.195-3.2,16.206-4.565-22.14,1.825-29.9,5.479-7.761-4.11-2.055-9.131,13.24-1.826,27.163-3.88,20.314-5.479,5.021-5.25-22.825,2.511-20.542-.684C40.647,4.66,70.6-6.36,78.086,4.836c1.114,1.665,2.3,4.676,1.2,10.078" transform="translate(-0.737 0)"/></g></g></g><g transform="translate(-10738.807 -7227)"><path class="ar" d="M245.942,345.681l2.2-6.216c7.344,3.9,6.008,7.744,6.327,12.469.3,4.285,0,7.74.24,11.58.249,4.152-2.9,6.989-7.775,7.451-7.5.728-3.557-8.614-3.024-10.324C250.569,357.28,249.943,350.157,245.942,345.681Z" transform="translate(11377.596 7674.286)"/><path class="ar" d="M237.027,347.125a11.277,11.277,0,0,0,6.954,1.9c5.475-.848,14.04-5.049,14.3-10.2A9.618,9.618,0,0,1,259.7,340.7c1.026,1.63,4.352,8.1-5.231,9.938-8.019,1.545-15.288,8.086-21.918,4.121C227.516,351.739,230.842,348.608,237.027,347.125Z" transform="translate(11335.273 7672.087)"/><path class="as" d="M256.881,341.694c-.95,3.02-.12,7.571.546,9.76.528,1.75,2.975,9.929-6.709,11.221-6.159.808-12.073,5.906-16.851,4.267-7.624-2.611-.382-6.514,2.145-8.042,3.313-2,7.318-6.279,9.827-9.138,3.7-4.214,3.37-7.327,3.53-14.742Z" transform="translate(11336.556 7658.993)"/><path class="at" d="M237.151,346.84c.915,2.6,5.333,1.967,6.807,1.563,7.82-2.171,16.514-4.8,14.449-9.862a10.2,10.2,0,0,1,1.425,1.865c1.021,1.63,4.347,8.108-5.235,9.955-5.87,1.119-11.319,4.884-16.438,5.293-1.869.164-7.225-.981-7.953-3.2C229.527,350.4,232.782,347.892,237.151,346.84Z" transform="translate(11335.335 7671.106)"/><path class="au" d="M240.646,297.549c.4-.053,3.521,14.524,3.73,17.446.6,8.534,3.131,20.035,1.106,28.441-1.19,4.924-7.184,8.188-7.184,2.318,0-11.842-4.782-23.063-5.106-34.87C233.106,307.753,234.154,298.459,240.646,297.549Z" transform="translate(11345.895 7530.079)"/><path class="as" d="M230.692,329.759c-1.061-1.816-.338-5.035,1.425-6.962,5.3-3.423,8.978-7.7,13.454-10.8a53.107,53.107,0,0,1,11.8-5.706,11.881,11.881,0,0,1,11.208,1.834c-1.732,2.26-7.629,8.548-10.311,10.3a49.807,49.807,0,0,1-11.074,5.4C244.311,324.9,237.317,327.81,230.692,329.759Z" transform="translate(11335.613 7557.836)"/><path class="av" d="M232.38,313.23c3.108-1.2,5.9,1.505,5.684,4.52,1.727-1.972,6.785-9.747,1.989-10.764-2.456-.52-4.254,1.5-6.332,2.855C231.025,311.582,232.38,313.23,232.38,313.23Z" transform="translate(11341.949 7562.261)"/><path class="aw" d="M261.352,307.08s.218.2.582.573c2.2,2.2,9.889,10.581,9.365,19.253-.613,10.12-.866,15.763-.866,15.763L245.6,358.606s-4.92.981-10.874-2.882-6.669-23.694-.435-32.011,18.565-8.437,18.565-8.437Z" transform="translate(11334.683 7562.87)"/><path class="as" d="M230.346,317.147c.138-.4-.3-3.45.848-6.1,1.061-2.469,5.058-.884,5.058-.884a3.039,3.039,0,0,1,3.286,1.416c.5.817.711,1.949,1.448,2.62.213.191,1.63.4,1.732.653.346.861-1.088,1.354-1.745,1.275-1.98-.231-1.723-1.918-3.255-1.252a2.57,2.57,0,0,0-.617.409c.08,1.048.08,1.923.124,2.122,1.057,2.722,2.9,8.716.852,8.947-.786-1.838-1.23-4.3-2.1-6.092-.524-1.079-.773-1.248-.879.044a18.19,18.19,0,0,0,.688,3.97c.111.644.821,2.864.28,3.41-.684.693-2.771-.9-3.131-1.6C231.536,323.422,229.285,320.309,230.346,317.147Z" transform="translate(11335.178 7571.767)"/><path class="ax" d="M237.117,302.165l3.051-.249-4,34.249L235,346.213l-3.037-2.482a32.45,32.45,0,0,1,.262-7.629C233.471,327.155,235.585,312.32,237.117,302.165Z" transform="translate(11341.307 7545.104)"/><path class="ay" d="M233.971,326.641c-.964,8.108,2.362,10.865,2.966,17.455s.613,27.06.555,37.619c1.98,2.709,7.464,3.619,7.948,1.163,2.935-15.035,9.6-28.267,5.59-38.84-2.567-6.745-9.174-20.99-9.174-20.99Z" transform="translate(11347.996 7617.809)"/><path class="ay" d="M252.213,378.4c-5.6-1.59-10.137-.24-13.015-4.507-4.3-20.013-6.43-30.35-6.931-40.989-.284-6.114.83-15.719,4.063-22.166,6.372,1.758,18.814,14.271,21.243,20.386C262.888,344.586,250.37,358.147,252.213,378.4Z" transform="translate(11342.586 7575.451)"/><path class="at" d="M245.844,345.37l2.207-6.225c7.336,3.9,5.995,7.753,6.319,12.469.293,4.294,0,7.744.24,11.6.249,4.152-2.9,6.971-7.771,7.438-7.491.728-3.561-8.61-3.024-10.319C250.476,356.955,249.85,349.837,245.844,345.37Z" transform="translate(11377.275 7673.185)"/><path class="az" d="M234.533,304.615c2,8.25,5.133,14.933,1.1,20.537-4.032,5.622-3.082,5.812-.786,8.459,2.3,2.624,10.231-15.417,8.019-20.213S234.533,304.615,234.533,304.615Z" transform="translate(11344.801 7554.389)"/><path class="as" d="M244.21,331.422c3.663-.56,7.349-1.2,11.048-1.758,1.745,9.3-.04,21.443,1.909,40.674.635,2.456,1.7,4.494,1.958,6.505.449,3.566,1.639,15.932-1.4,17.2-2.473,1.044-6.851,2.5-6.607.591.266-2.038-2.6-11.328-2.424-19.48.231-13.818-5.408-32.144-8.121-41.513-.133-.444-.284-.981-.448-1.581C241.488,331.849,242.846,331.635,244.21,331.422Z" transform="translate(11369.75 7640.567)"/><path class="ba" d="M242.349,297.52a26.9,26.9,0,0,1-3.046.129s-3.415,2.26-3.805,3.69-2.709,19.768-2.709,19.768l4.787.386Z" transform="translate(11344.529 7529.979)"/><path class="bb" d="M238.779,308.641c1.052,4.423,6.367,6.678,10.768,6.891,5.027.262,9.5-.284,12.993-3.552a37.205,37.205,0,0,1,9.631,15.244c2.487,8.352-4,20.572-4.005,36.678-.009,14.24.018,15.905,2.593,21.3,1.456,3.064-6.567,5.257-16.016,2.589-4.232-6.332-11.8-32.037-9.809-49.861a30.1,30.1,0,0,1-6.341-8.561C235.249,323.037,228.348,321.638,238.779,308.641Z" transform="translate(11346.092 7568.24)"/><path class="ar" d="M232.22,320.536a16.274,16.274,0,0,0,3.1,8.317,25.184,25.184,0,0,0,2.793,3.321c1.607,4.68,2.5,4.694,3.69,9.174.559,2.06-.844,7.9-2.917,10.244-1.647,1.838,1.128,6.754,4.218,9.347,5.151,4.316,27.69,6.851,29.391-2.1-4.09-6.709-8.259-11.465-7.118-15.523,2.233-8.015,11.212-10.382,14.489-19.262.035-.089.062-.173.093-.244l.044-.12a12.528,12.528,0,0,0-.821-8.468s-7.167-11.714-18.152-15.679a32.164,32.164,0,0,0-13.179-2.091,16.919,16.919,0,0,0-3.868.67l-.222.076-.013.018a5.465,5.465,0,0,0-2.06,2.611c-.013.036-.013.08-.027.107a37.013,37.013,0,0,1-2.407,5.035l-.027.067c-1.5,2.78-3.153,5.573-3.361,5.879a26.358,26.358,0,0,0-3.135,5.191A9.229,9.229,0,0,0,232.22,320.536Z" transform="translate(11342.558 7529.512)"/><path class="bc" d="M236.194,307.326c2.069-.346,2.86.044,4.116-1.638a77.051,77.051,0,0,0,2.433-11.168l9.471,1.55c-1.661,14.311.981,15.808,6.714,20.466-.919,2.931-12.438,1.274-17.344-1.647C237.579,312.512,235.08,310.261,236.194,307.326Z" transform="translate(11355.328 7519.659)"/><path class="bb" d="M263.728,382.513s.657-29.475-.386-34.524-4.7-11.083-9.24-17.939c-5.368-8.113-11.292-4.636-11.292-4.636l-3.29,4.023-1.434,3.2s5.63,7.073,6.914,12.42c1.71,7.073,1.683,6.789,10.124,37.645C255.123,382.7,258.04,386.615,263.728,382.513Z" transform="translate(11362.749 7623.396)"/><path class="bd" d="M256.486,298.789s-4.249,19.44-16.158,31.047c-11.927,11.607,3.361,31.913,3.7,33.294s15.8,1.967,19.316-6.017c-2.549-4.72-9.6-14.915-9.161-17.1S264.4,328,264.4,328l2.464-19.182S261.735,302.292,256.486,298.789Z" transform="translate(11354.836 7534.345)"/><path class="as" d="M251.4,312.6c.919-1.283,1.674-2.393,2.367-3.4q3.517,4.363,7.051,8.707c-1.452,1.443-2.749,2.558-3.912,3.548-2.344,1.976-7.948,7.082-13.53,11.154-1.616-1.354-.866-.71-2.456-2.069C243.072,325.047,248.232,317.032,251.4,312.6Z" transform="translate(11372.513 7570.177)"/><path class="as" d="M238.1,324.723c-.506-3.3,4.862-8.739,6.914-9.32,2.46-.7,5.342-2.975,10.488-2.562l2.149,4.063c-1.039,3.93-5.781,4.5-7.167,5.79-1.354,2.091-4.893,7.2-6.594,5.488,1.026-1.714,2.282-3.4,3.392-5.124a30.633,30.633,0,0,0-2.891,2.127c-1.243,1.035-3.206,2.793-3.686,2.6a5.425,5.425,0,0,1-2.691-1.754C239.267,323.862,239.192,324.8,238.1,324.723Z" transform="translate(11362.508 7582.517)"/><path class="ba" d="M245.953,300.522c-1.954,1.115-6.612,3.788-3.921,15.852.839,3.743,3.592,7.482,6.145,13.268.857,3.157,5.408,7.278,5.408,7.278l-1.434-.346-.937,3.131,5.777,12.229s10.066-9.058,9.724-13.263-4.3-13.814-4.3-13.814l-8.841-14.778-3.015-7.606Z" transform="translate(11373.521 7540.308)"/><path class="av" d="M257.576,318.536l-.391-.888s-4.391-1.052-6.31-3.712S247.6,309.3,247.6,309.3l-.91-.209-3,4.214-1.319,2.7s2.069,5.262,4.969,6.505,4.685,2.016,4.685,2.016Z" transform="translate(11377.515 7569.805)"/><path class="av" d="M254.771,297.861a35.018,35.018,0,0,1,5.661,6.758s-.333,9.991-5.528,18.17a40,40,0,0,0-5.67.453,19.613,19.613,0,0,0,6.136.9s-2.025,4.862-16.207,13.17c-1.288.884-3.5,6.621-2.7,11.7-.884-3.321-2.5-10.408,6.341-18.991s11-30.727,11-30.727Z" transform="translate(11354.682 7531.153)"/><path class="bd" d="M244.2,303.653c-4.871,6.5-8.272,13.392-7.171,21.784a55,55,0,0,0,4.338,14.138c-.6,4.569-.386,7.082-4.8,12.859,1.172-4.84,1.181-14.724-.662-19.667-1.332-3.574-3.082-7.326-3.686-11.119l-.009-.1a9.483,9.483,0,0,1,.346-4.125c.808-2.717,2.633-5,3.992-7.455,1.2-2.167,2.393-4.351,3.561-6.541.391-.715.773-1.448,1.137-2.18a16.25,16.25,0,0,1,2.114-2.931s3.312-.875,3.419-.937l-.479,4.129A10.268,10.268,0,0,0,244.2,303.653Z" transform="translate(11342.248 7529.508)"/><path class="ax" d="M243.026,297.383l-3.228.244a5.909,5.909,0,0,0-2.833,3.233c-1.017,2.522-3.526,6.945-3.526,6.945l9.587-10.222Z" transform="translate(11346.765 7529.508)"/><path class="av" d="M248.8,299.708c-4.32,4.494-13.508,16.376-12.362,24.622.857,6.132,3.668,13.712,3,19.253a8.1,8.1,0,0,0-1.306-4.6c-2.464-4.423-7.531-14.2-4.622-24.111a17.416,17.416,0,0,0,2.189,2.3l-1.283-4.667,9.938-12.535,5-3.339Z" transform="translate(11344.006 7526.921)"/><path class="be" d="M235.413,303.6c.981,3.557,4.307,6.625,7.331,8.708a16.483,16.483,0,0,1-.546-4.458c-.044-1.252-.062-2.677-.031-4.143.018-1.017.067-2.056.129-3.086a4.03,4.03,0,0,1,.031-.466,30.6,30.6,0,0,1,1.168-7.278,5.619,5.619,0,0,1,.746-1.519l-5.755.568a7.544,7.544,0,0,0-2.527,2.1.2.2,0,0,1-.062.076v.018a7.439,7.439,0,0,0-.95,1.341,2.825,2.825,0,0,0-.4,1.079C234.32,299.653,234.582,300.554,235.413,303.6Z" transform="translate(11350.315 7508.766)"/><path class="be" d="M234.8,299.814v.04a10.262,10.262,0,0,0,.249,2.176c.062.275.142.551.218.817a42.367,42.367,0,0,0,3.339,7.411,9.206,9.206,0,0,0,2.464,2.824,31,31,0,0,0,5,3.131,13.524,13.524,0,0,0,3.947,1.434,9.568,9.568,0,0,0,1.616.2.9.9,0,0,0,.244,0c6.4.178,10.715-5.555,12.149-9.653.107-.333.218-.675.311-1.012a15.761,15.761,0,0,0,.266-5.95c-.715-5.133-3.9-10.248-10.049-11.4l-.337.093-16.354,4.245a7.333,7.333,0,0,0-1.949,1.932,2.773,2.773,0,0,0-.24.338,6.29,6.29,0,0,0-.839,2.815.369.369,0,0,0-.013.115A3.876,3.876,0,0,0,234.8,299.814Z" transform="translate(11351.444 7503.53)"/><path class="as" d="M255.437,312.14c-.24,1.044.244,3.765-4.52,7.371-2.953,2.238-6.359,4.525-9.684,4.134-2.589-.32-4.369-5.351-5.293-8.881-1.35-5.164-.8-8.872,0-14.134,1.128-7.42,2.953-12.167,12.975-9.547S257.44,303.392,255.437,312.14Z" transform="translate(11352.551 7505.333)"/><path class="be" d="M234.792,299.81v.066a4.183,4.183,0,0,0,.031.417v.04a5.563,5.563,0,0,0,2.06,3.5,1.258,1.258,0,0,0,.249.235,9.81,9.81,0,0,0,2.571,1.678,12.126,12.126,0,0,0,1.488.582c3.042,1,6.092.932,8.268,3.947-.147-.466-.111-1.061-.249-1.532a15.566,15.566,0,0,1,4.352,3.885,6.419,6.419,0,0,0-.164-1.994,5.015,5.015,0,0,0,2.766.662,8.322,8.322,0,0,0,3.295-1.177c.187-.12.36-.258.533-.391a6.434,6.434,0,0,0,2.056-3.037,9.43,9.43,0,0,0,.417-2.873,16.063,16.063,0,0,0-1.323-6.683,11.838,11.838,0,0,0-14-7.082c-2.713.657-7.6,2.6-10.328,5.479a6.164,6.164,0,0,0-.884,1.043,2.775,2.775,0,0,0-.24.338A5.445,5.445,0,0,0,234.792,299.81Z" transform="translate(11351.42 7503.05)"/><path class="au" d="M244.972,297.551c-.546,1.972-3.184,5.666-5.6,4.027l1.665-5.932C241.975,293.3,246.251,292.969,244.972,297.551Z" transform="translate(11367.163 7517.75)"/><path class="be" d="M235.017,299.3v.018a6.781,6.781,0,0,0,.306.906c1.066,2.6,3.557,4.645,5.772,6.092.7.448,1.4.861,1.985,1.2a18.271,18.271,0,0,1,6.989,7.5,23.6,23.6,0,0,1,2.287,6.8,11.909,11.909,0,0,0-.671-6.594,9.1,9.1,0,0,0-.622-1.341,7.619,7.619,0,0,1,.866,1.341c2.225,4.174,1.647,10.905-.4,13.321,1.483-1.021,3.233-4.289,4.338-6.159a37.423,37.423,0,0,1-2.1,5.746c5.524-5.857,11.931-15.048,11.931-23.774v-.018a15.85,15.85,0,0,0-1.044-5.733c-.1-.222-.186-.431-.28-.653a11.411,11.411,0,0,0-3.2-3.921c-4.645-3.819-12.322-5.6-14.613.75l-4.138.7-7.549,1.261-.049.027A6.64,6.64,0,0,0,235.017,299.3Z" transform="translate(11351.386 7506.15)"/><path class="bf" d="M234.578,301.169a10.1,10.1,0,0,0,1.106,1.217l.036.018v.018c.027.027.058.062.089.089a13.23,13.23,0,0,0,2.06,1.563,17.487,17.487,0,0,0,4.09,1.794c5.861,1.8,12.917,1.554,18.237,4.258l.3.133a2.951,2.951,0,0,0,.235-.524,4.636,4.636,0,0,0-.639-4.209,11.87,11.87,0,0,1,2.7,1.172,13.356,13.356,0,0,0,2.309.968,1.576,1.576,0,0,0,.848.044,2.272,2.272,0,0,0,.462-.244v-.018a15.85,15.85,0,0,0-1.044-5.733c-.715-5.133-3.9-10.248-10.049-11.4l-.337.093a12.169,12.169,0,0,0-7.091-.346c-2.713.657-7.6,2.6-10.328,5.479a6.165,6.165,0,0,0-.884,1.043,2.777,2.777,0,0,0-.24.338,5.445,5.445,0,0,0-.9,2.891v.018A7.44,7.44,0,0,0,234.578,301.169Z" transform="translate(11350.684 7503.05)"/></g><g transform="translate(-10738.807 -7227)"><path class="s" d="M561.34,706.368l7.955-1c5.324-2.412,7.812-4.225,10.182-2.856l.672.388c2.371,1.369,2.07,3.782-.667,5.362l-11.7,9.292a7.719,7.719,0,0,1-8.611-.837s-1.308-1.181-.372-6.151C559.337,707.736,559.151,707.632,561.34,706.368Z" transform="translate(10858.908 7375.129)"/><path class="as" d="M570.822,682.587c-.583,5.031-9.807,5.031-9.807,1.2l5.111-116.19,30.763-8.673Z" transform="translate(10858.495 7398.281)"/><path class="s" d="M599.336,719.605l8.47,1.594c6.242-.718,9.384-1.755,11.361.426l.56.618c1.976,2.181.875,4.552-2.447,5.27l-15.026,5.665a8.3,8.3,0,0,1-8.538-3.688s-.951-1.639,1.643-6.419C596.837,720.345,596.679,720.179,599.336,719.605Z" transform="translate(10853.233 7372.289)"/><path class="as" d="M601.843,700.1c-1.607,4.066-8.651,3.177-8.531-.161,3.291-40.261-4.286-78.284-14.05-115.283l29.544-3.195C609.96,624.755,609.573,661.856,601.843,700.1Z" transform="translate(10855.544 7394.635)"/><path class="w" d="M604.355,579.668l4.177,57.1s-16.281,23.124-45.486-1.724l.133-52Z" transform="translate(10858.167 7394.925)"/><path class="as" d="M612.316,479.93l-23.864,22.762s9.6,6.4,10.959,6.387,17.729-19.921,17.729-19.921Z" transform="translate(10854.058 7411.059)"/><path class="as" d="M614.662,476.6l1.005-3.7a5.379,5.379,0,0,1,6.579-3.772h0a5.378,5.378,0,0,1,3.772,6.581l-1.005,3.7a5.379,5.379,0,0,1-6.579,3.772h0A5.379,5.379,0,0,1,614.662,476.6Z" transform="translate(10849.848 7412.837)"/><path class="q" d="M593.992,532.5l58.693,31.1c1.129.6,3.065-.287,3.571-1.631l32.493-86.307a1.456,1.456,0,0,0-.555-1.782l-58.755-30.5c-1.128-.6-3.064.286-3.571,1.63L593.481,530.9A1.21,1.21,0,0,0,593.992,532.5Z" transform="translate(10853.262 7417.003)"/><g transform="translate(11467.813 7871.596)"><path class="bg" d="M647.583,515.84l1.7.9c1.248.661,2.783-.187,3.427-1.9l.145-.384L647,511.36l-.335.887A2.927,2.927,0,0,0,647.583,515.84Z" transform="translate(-623.134 -465.622)"/><path class="bg" d="M644.608,523.729l1.7.9c1.249.661,2.784-.187,3.428-1.9l.145-.384-5.853-3.1-.334.887A2.926,2.926,0,0,0,644.608,523.729Z" transform="translate(-622.653 -466.898)"/><path class="bg" d="M650.557,507.952l1.7.9c1.249.661,2.783-.187,3.428-1.9l.144-.384-5.853-3.1-.334.887A2.926,2.926,0,0,0,650.557,507.952Z" transform="translate(-623.615 -464.346)"/><path class="bg" d="M653.532,500.063l1.7.9c1.248.661,2.783-.187,3.427-1.9l.145-.383-5.853-3.1-.334.887A2.927,2.927,0,0,0,653.532,500.063Z" transform="translate(-624.096 -463.07)"/><path class="bg" d="M656.506,492.175l1.7.9c1.249.661,2.783-.187,3.427-1.9l.144-.384-5.853-3.1-.334.887A2.926,2.926,0,0,0,656.506,492.175Z" transform="translate(-624.577 -461.794)"/><path class="bg" d="M659.137,484.413l1.7.9c1.281.679,2.854-.192,3.515-1.944l1.273-3.376-5.853-3.1-1.521,4.036A2.838,2.838,0,0,0,659.137,484.413Z" transform="translate(-625.008 -460.046)"/><path class="bg" d="M640.98,532.187l2.066,1.1c1.52.8,3.386-.228,4.17-2.307l.176-.467-7.122-3.773-.407,1.079C639.208,529.556,639.707,531.513,640.98,532.187Z" transform="translate(-622.025 -468.109)"/><path class="bg" d="M637.588,540.44l2.3,1.219c1.692.9,3.771-.253,4.644-2.568l.2-.52-7.93-4.2-.453,1.2C635.615,537.509,636.172,539.688,637.588,540.44Z" transform="translate(-621.451 -469.344)"/><path class="bg" d="M634.271,549.237l2.3,1.22c1.692.9,3.771-.254,4.644-2.568l.2-.52-7.931-4.2-.453,1.2C632.3,546.306,632.854,548.486,634.271,549.237Z" transform="translate(-620.914 -470.767)"/><path class="bg" d="M630.565,557.541l2.782,1.474c2.045,1.083,4.559-.307,5.615-3.1l.236-.629-9.586-5.079-.548,1.452C628.18,554,628.853,556.634,630.565,557.541Z" transform="translate(-620.262 -471.905)"/><g transform="translate(15.395)"><path class="bg" d="M654.068,467.149a10.047,10.047,0,0,1-3.661-.929c-4.9-2.994-5.61-6.834-9.522-9.1a1.978,1.978,0,0,0-2.647.443,4.985,4.985,0,0,0-1.226,3.393,3.181,3.181,0,0,0,1.064,2.121h0c2.3,2.305,5.4,3.241,8.361,4.338a14.347,14.347,0,0,1,4.213,1.983c.7.571,1.327,2.155,2.437,1.935.556-.111,1.1-.771,1.462-1.586C655.2,468.262,654.828,467.186,654.068,467.149Z" transform="translate(-637.004 -456.795)"/></g><g transform="translate(43.888 17.264)"><path class="bg" d="M673.175,477.69A11.9,11.9,0,0,0,676.2,480.3c5.151,2.33,8.038.4,12.073,2.339a2.666,2.666,0,0,1,1.487,2.634,4.9,4.9,0,0,1-1.315,3.345,2.248,2.248,0,0,1-2.042.475h0c-2.986-.5-5.637-2.6-8.3-4.491a14.847,14.847,0,0,0-4.056-2.4c-.826-.238-2.24.265-2.841-.863a3.3,3.3,0,0,1,.021-2.348C671.718,477.429,672.645,477.044,673.175,477.69Z" transform="translate(-670.996 -477.391)"/></g><g transform="translate(0 14.241)"><path class="bg" d="M639.451,475.023c-5.917,2.324-10.091,5.944-13.209,12.69a77.117,77.117,0,0,0-5.983,19.331,38.243,38.243,0,0,0-.385,10.338c.29,3.08,1.884,6.392,5.46,5.361,1.417-.408,2.371-2.545,3.258-3.8,2.345-3.322,4.188-5.857,7.646-7.458.653-.3,1.04.9.388,1.2-4.147,1.92-5.644,5.61-8.628,9.124-1.282,1.509-3.065,3.263-5.022,3.055-4.568-.486-4.359-8.187-4.327-11.943a66.845,66.845,0,0,1,5.536-26.272c3.245-7.1,8.629-10.374,14.878-12.828.663-.261,1.054.941.388,1.2Z" transform="translate(-618.638 -473.784)"/></g><g transform="translate(15.23 16.413)"><path class="bg" d="M647.765,486.581c-4.978-.934-7.853-3.73-10.887-8.359-.429-.655,1.245-2.392,1.6-1.676,2.154,4.4,4.723,7.874,9.455,8.761.692.129.527,1.4-.164,1.273Z" transform="translate(-636.808 -476.376)"/></g><g transform="translate(9.867 20.576)"><path class="bg" d="M644.531,493.216a22.174,22.174,0,0,1-14.056-9.726c-.44-.645,1.485-2.726,1.81-1.993,1.905,4.31,7.061,9.384,12.41,10.446.691.137.526,1.411-.163,1.273Z" transform="translate(-630.409 -481.342)"/></g><g transform="translate(5.445 27.53)"><path class="bg" d="M641.328,499.362a22.851,22.851,0,0,1-16.051-7.594c-.5-.567.441-2.6.95-2.029,4.178,4.7,9.566,8.074,15.265,8.351.7.034.527,1.306-.164,1.272Z" transform="translate(-625.134 -489.638)"/></g><g transform="translate(3.384 32.37)"><path class="bg" d="M640.271,506.328c-6.257-.244-13.567-2.113-17.506-8.4-.417-.665.723-3.069,1.141-2.4a21.01,21.01,0,0,0,16.529,9.527c.7.028.526,1.3-.164,1.273Z" transform="translate(-622.676 -495.412)"/></g><g transform="translate(1.155 40.878)"><path class="bg" d="M638.452,513.255a24.162,24.162,0,0,1-18.269-4.858c-.584-.451.514-3.234,1.1-2.785,4.979,3.84,11.18,7.336,17.056,6.364.695-.115.81,1.165.118,1.28Z" transform="translate(-620.017 -505.562)"/></g><g transform="translate(0.675 47.326)"><path class="bg" d="M636.621,519.108c-5.825,1.024-11.905.688-16.921-3.143-.586-.447-.06-3.106.523-2.661,4.761,3.637,10.773,5.493,16.281,4.524.693-.122.808,1.159.117,1.28Z" transform="translate(-619.444 -513.254)"/></g><g transform="translate(0.023 54.163)"><path class="bg" d="M631.028,524.978a16.856,16.856,0,0,1-6.03,1.247c-2.169-.122-4.117-1.269-5.994-2.47-.611-.391-.321-2.693.3-2.3,1.647,1.053,3.426,2.785,5.32,2.994a14.613,14.613,0,0,0,6.021-.675c.669-.218,1.063.982.388,1.2Z" transform="translate(-618.666 -521.411)"/></g><g transform="translate(28.712 30.38)"><path class="bg" d="M674.717,493.886c2.487,6.776,2.995,12.877.835,20.13a73.716,73.716,0,0,1-8.16,18.177,30.185,30.185,0,0,1-6.241,7.236c-2.129,1.8-5.275,2.6-7.013-1.247-.688-1.523.018-3.79.217-5.413.524-4.287.889-7.605-.412-11.727-.246-.778-1.26-.318-1.015.459,1.56,4.943.238,8.726.02,13.706-.094,2.138-.007,4.884,1.429,6.473,3.352,3.709,8.054-1.612,10.393-4.145a59.545,59.545,0,0,0,12.822-22.412c2.3-7.6.765-14.54-1.861-21.7-.278-.759-1.294-.3-1.015.459Z" transform="translate(-652.891 -493.037)"/></g><g transform="translate(39.755 32.769)"><path class="bg" d="M666.263,497.03c3.907,3.775,7.582,4.448,12.516,4.04.7-.058.673-2.7-.012-2.527-4.2,1.034-8.1,1.08-11.813-2.507-.542-.524-1.233.47-.691.994Z" transform="translate(-666.066 -495.887)"/></g><g transform="translate(37.554 38.604)"><path class="bg" d="M663.639,503.987a20.359,20.359,0,0,0,15.489,5.926c.7-.04.723-3.13.046-2.927-3.98,1.192-10.609.023-14.844-3.993-.547-.518-1.238.475-.692.993Z" transform="translate(-663.439 -502.849)"/></g><g transform="translate(36.136 43.846)"><path class="bg" d="M661.912,510.278c4.093,4.993,9.573,8.539,15.48,9.111.692.066,1.341-2.125.641-2.193a22.524,22.524,0,0,1-15.429-7.911c-.488-.594-1.173.4-.692.993Z" transform="translate(-661.748 -509.103)"/></g><g transform="translate(32.786 48.449)"><path class="bg" d="M657.914,515.772c4.327,5.364,10.377,10.573,16.955,9.859.7-.075,1.447-2.686.749-2.61-6.283.682-12.89-3.132-17.013-8.242-.484-.6-1.169.4-.692.993Z" transform="translate(-657.752 -514.594)"/></g><g transform="translate(30.457 53.355)"><path class="bg" d="M655.069,521.471a28.207,28.207,0,0,0,15.239,12.894c.673.215,1.69-2.611,1.02-2.825-5.735-1.837-12.068-4.981-15.376-10.819-.391-.69-1.272.063-.884.75Z" transform="translate(-654.972 -520.447)"/></g><g transform="translate(28.721 57.963)"><path class="bg" d="M653,526.969c3.241,5.828,7.508,10.974,13.262,12.849.672.219,1.992-2.019,1.324-2.237a24.809,24.809,0,0,1-13.7-11.361c-.386-.694-1.267.059-.883.749Z" transform="translate(-652.902 -525.944)"/></g><g transform="translate(29.543 66.017)"><path class="bg" d="M653.942,536.387a24.248,24.248,0,0,0,3.238,6.158,13.8,13.8,0,0,0,5.551,3.646c.654.278,1.907-1.513,1.248-1.795-1.76-.751-4.036-1.168-5.43-2.7a20.532,20.532,0,0,1-3.593-5.768.558.558,0,1,0-1.014.459Z" transform="translate(-653.883 -535.553)"/></g><g transform="translate(9.077 7.238)"><path class="bg" d="M629.8,471.679a2.059,2.059,0,0,1-.329-1.435,8.732,8.732,0,0,1,.913-2.992c.89-1.746,1.678-1.92,2.19-1.788h0l3.915,1.01c.444.114,2.63.327.509,4.154-1.12,2.019-3.463,2.014-4.14,2.136A2.816,2.816,0,0,1,629.8,471.679Z" transform="translate(-629.467 -465.43)"/></g><g transform="translate(55.92 30.372)"><path class="bg" d="M689.6,503.032a1.453,1.453,0,0,0,1.121-.667,8.269,8.269,0,0,0,1.272-2.8c.5-1.951.086-2.763-.338-3.128h0l-3.246-2.785c-.368-.316-1.96-2.1-2.95,2.321-.523,2.335,1.044,4.4,1.419,5.081C687.576,502.322,688.461,503.084,689.6,503.032Z" transform="translate(-685.35 -493.028)"/></g><path class="bg" d="M654.717,488.217l7.27,3.851c.2.1.438-.03.538-.3h0a.551.551,0,0,0-.172-.675l-7.269-3.852c-.2-.1-.438.031-.539.3h0A.552.552,0,0,0,654.717,488.217Z" transform="translate(-624.44 -461.715)"/><path class="bg" d="M664.249,471.639l1.7.9c1.248.661,2.783-.187,3.427-1.9l.145-.383-5.853-3.1-.334.886A2.928,2.928,0,0,0,664.249,471.639Z" transform="translate(-625.83 -458.472)"/><path class="bg" d="M662.461,467.681l7.269,3.852c.2.1.438-.03.539-.3h0a.551.551,0,0,0-.172-.674l-7.27-3.852c-.2-.1-.438.031-.538.3h0A.55.55,0,0,0,662.461,467.681Z" transform="translate(-625.692 -458.393)"/><path class="bg" d="M651.743,496.106l7.269,3.852c.2.1.438-.031.539-.3h0a.552.552,0,0,0-.172-.675l-7.27-3.851c-.2-.1-.437.03-.538.3h0A.551.551,0,0,0,651.743,496.106Z" transform="translate(-623.959 -462.991)"/><path class="bg" d="M648.769,503.994l7.269,3.851c.2.1.438-.03.539-.3h0a.551.551,0,0,0-.173-.675l-7.269-3.852c-.2-.1-.437.031-.539.3h0A.551.551,0,0,0,648.769,503.994Z" transform="translate(-623.477 -464.267)"/><path class="bg" d="M645.794,511.883l7.269,3.852c.2.1.438-.031.539-.3h0a.552.552,0,0,0-.172-.675l-7.269-3.851c-.2-.1-.438.03-.539.3h0A.551.551,0,0,0,645.794,511.883Z" transform="translate(-622.996 -465.543)"/><path class="bg" d="M642.82,519.771l7.269,3.851c.2.1.438-.03.539-.3h0a.55.55,0,0,0-.173-.674l-7.269-3.852c-.2-.1-.438.031-.539.3h0A.551.551,0,0,0,642.82,519.771Z" transform="translate(-622.515 -466.819)"/><path class="bg" d="M639.845,527.66l7.269,3.852c.2.1.438-.031.539-.3h0a.551.551,0,0,0-.172-.675l-7.269-3.851c-.2-.1-.438.03-.539.3h0A.552.552,0,0,0,639.845,527.66Z" transform="translate(-622.034 -468.095)"/><path class="bg" d="M636.149,535.166l8.466,4.485c.2.1.438-.03.539-.3h0a.552.552,0,0,0-.172-.675l-8.466-4.485c-.2-.1-.438.03-.539.3h0A.551.551,0,0,0,636.149,535.166Z" transform="translate(-621.436 -469.31)"/><path class="bg" d="M631.992,542.428l10.229,5.419c.2.1.438-.03.539-.3h0a.551.551,0,0,0-.173-.675l-10.228-5.419c-.2-.1-.438.03-.539.3h0A.552.552,0,0,0,631.992,542.428Z" transform="translate(-620.764 -470.484)"/><path class="bg" d="M628.105,549.833l12.19,6.459c.2.1.438-.03.539-.3h0a.551.551,0,0,0-.172-.675l-12.19-6.459c-.2-.1-.438.03-.539.3h0A.552.552,0,0,0,628.105,549.833Z" transform="translate(-620.135 -471.682)"/><path class="bg" d="M658.24,475.534a3.142,3.142,0,0,0,1.239,3.841,2.317,2.317,0,0,0,3.241-1.468,3.143,3.143,0,0,0-1.24-3.84A2.316,2.316,0,0,0,658.24,475.534Z" transform="translate(-625.01 -459.548)"/><path class="bg" d="M663.238,478.182a3.143,3.143,0,0,0,1.239,3.841,2.317,2.317,0,0,0,3.241-1.468,3.144,3.144,0,0,0-1.239-3.84A2.316,2.316,0,0,0,663.238,478.182Z" transform="translate(-625.818 -459.976)"/></g><path class="bh" d="M603.747,568.962l10.275,56.39s-25.53,25.3-54.736,0l3.285-52.951Z" transform="translate(10858.775 7396.657)"/><ellipse class="t" cx="9.437" cy="16.649" rx="9.437" ry="16.649" transform="translate(11432.487 7866.164) rotate(-7.368)"/><path class="as" d="M606.233,471.641c-2.2,7.656-10.4,10.427-15.229,5.428s-6.957-15.257-4.76-22.912,7.889-9.812,12.714-4.813S608.43,463.985,606.233,471.641Z" transform="translate(10854.555 7416.442)"/><path class="as" d="M587.167,497.8l-.821-.184a5.178,5.178,0,0,1-3.915-6.164l3.486-15.629a5.178,5.178,0,0,1,6.164-3.915l.821.183a5.178,5.178,0,0,1,3.915,6.164l-1.142,15.511C595.057,496.54,589.939,498.42,587.167,497.8Z" transform="translate(10855.051 7412.376)"/><path class="bi" d="M579.451,472.4s-.951,5.309,8.314,5.821c7.413.409,5.21-13,12.56-14.2,8.086-1.319,9.55-11.307,6.364-15.14s-12.09-5.837-18.539-2.992S568.157,450.813,579.451,472.4Z" transform="translate(10856.217 7416.782)"/><path class="t" d="M603.9,471.876a3.507,3.507,0,1,1-2.4-4.338A3.506,3.506,0,0,1,603.9,471.876Z" transform="translate(10852.671 7413.085)"/><path class="bh" d="M563.046,558.458c2.617-14.345-.2-25.683.031-40.935,0-27.42-1.316-34.111,13.18-29.94l4.085,1.086a28.172,28.172,0,0,1,5.67,2.19c19.111,9.846,24.212,12.883,23.373,24.3.086,18.813-8.672,22.65-4.017,39.12C601.431,567.289,567.417,567.767,563.046,558.458Z" transform="translate(10858.167 7410.005)"/><path class="y" d="M598.983,485.573l-.831-1.92a5.266,5.266,0,0,0,4.3,1.12A6.747,6.747,0,0,1,598.983,485.573Z" transform="translate(10852.488 7410.457)"/><ellipse class="bg" cx="6.677" cy="7.758" rx="6.677" ry="7.758" transform="translate(11429.699 7866.377)"/><path class="bi" d="M576.17,456.136c.319-3.976-5.1-5.723-7.229-2.349a15.243,15.243,0,0,0-1.792,4.763c-2.7,11.929-22.789,10.2-12.934,31.191,0,0-8.967,13.771,7.7,19.573,8.53,2.969,8.339-18.994,8.339-18.994s3.4-10.1,6.689-18.024a14.734,14.734,0,0,0,.049-11.62A9.176,9.176,0,0,1,576.17,456.136Z" transform="translate(10860.032 7415.577)"/><path class="w" d="M583,486.833a2.3,2.3,0,0,0-2.778,2.622c.3,1.787,1.394,3.927,4.658,5.033,4.52,1.531,9.484.709,11.872.141a.651.651,0,0,0,.184-1.189C594.241,491.777,587.782,487.989,583,486.833Z" transform="translate(10855.395 7409.953)"/><path class="as" d="M595.84,505.986s3.921,20.914,28.058,46.455c6.637,7.024,40.012,2.749,40.012,2.749l-.018-6.55s-25.074,2.718-31.283-5.681C625.611,533.495,615.5,497.32,595.84,505.986Z" transform="translate(10852.862 7407.059)"/><path class="bh" d="M600.141,518.92l11.977,25.553c1.631,1.8,18.777-10.766,16.668-13.593-.372-.5-15.512-30.172-27.061-33.457C592.346,494.756,593.379,507.9,600.141,518.92Z" transform="translate(10853.018 7408.286)"/><path class="as" d="M672.084,566.584l-3.838-.014a5.379,5.379,0,0,1-5.344-5.381h0a5.378,5.378,0,0,1,5.382-5.343l3.839.013a5.378,5.378,0,0,1,5.343,5.381h0A5.378,5.378,0,0,1,672.084,566.584Z" transform="translate(10842.014 7398.779)"/><path class="bj" d="M612.3,546.923l-4.621-9.859s-.269,23.775,4.621,32.945Z" transform="translate(10850.946 7401.817)"/></g></g></svg>